<svg xmlns="http://www.w3.org/2000/svg" xmlns:xlink="http://www.w3.org/1999/xlink" width="32" height="32"><defs><linearGradient id="a"><stop offset="0" stop-color="#000092"/><stop offset="1" stop-color="#ff00f3"/></linearGradient><linearGradient id="b" x1="1.996" x2="27" y1="15.989" y2="15.989" gradientUnits="userSpaceOnUse" xlink:href="#a"/></defs><path fill="url(#b)" d="M6.344 2A.5.5 0 0 0 6 2.5v7.313l-3.813 3.093a.5.5 0 0 0-.187.406.5.5 0 0 0 0 .032.5.5 0 0 0 0 .031.5.5 0 0 0 0 .125v16a.5.5 0 0 0 .5.5h27a.5.5 0 0 0 .5-.5v-16a.5.5 0 0 0 0-.031.5.5 0 0 0 0-.063.5.5 0 0 0 0-.031.5.5 0 0 0-.188-.469L26 9.812V8.531A.5.5 0 0 0 25.437 8a.5.5 0 0 0-.437.531v7.438l-9 6-9-6v-5.75a.5.5 0 0 0 0-.344V3h12.5a.5.5 0 1 0 0-1h-13a.5.5 0 0 0-.156 0zm15 0a.5.5 0 0 0-.344.5v4a.5.5 0 0 0 .5.5h4a.5.5 0 0 0 .344-.875l-4-4a.5.5 0 0 0-.5-.125zM22 3.688 24.313 6H22V3.687zM8.844 4.5A.5.5 0 0 0 8.5 5v4a.5.5 0 0 0 .5.5h4a.5.5 0 0 0 .5-.5V5a.5.5 0 0 0-.5-.5H9a.5.5 0 0 0-.156 0zm.656 1h3v3h-3v-3zM14 6v1h5V6h-5zm0 2v1h5V8h-5zm-5 2v1h14v-1H9zm-3 1.094v4.219l-2.844-1.907L6 11.094zm20 0 2.844 2.312L26 15.312v-4.218zM9 12v1h14v-1H9zm0 2v1h14v-1H9zm-6 .5L15.719 23a.5.5 0 0 0 .562 0L29 14.5V29H3V14.5zM18 16v1h4v-1h-4z" color="#000" font-family="Sans" font-weight="400" overflow="visible" style="text-indent:0;text-align:start;line-height:normal;text-transform:none;block-progression:tb;marker:none;-inkscape-font-specification:Sans"/></svg>